<svg xmlns="http://www.w3.org/2000/svg" width="28" height="28" fill="none" viewBox="0 0 42 41"><path fill="#fff" d="M13.727 1.603s-.606-.606-1.515-.606c-1.176 0-2.045.78-2.848 2.042C4.457 10.82.97 27.633 1 27.663l20-19.09z" opacity=".6"/><path fill="#fff" d="M28.273 1.603s.606-.606 1.515-.606c1.176 0 2.045.78 2.848 2.042C37.543 10.82 41.03 27.633 41 27.663L21 8.573z" opacity=".7"/><path fill="url(#a)" d="M21 8.572 1 27.663c-.151.91 10.131 9.218 16.435 12.431 1.005.509 2.442.893 3.565.902 1.13.01 2.568-.36 3.566-.902C30.869 36.881 41.152 28.572 41 27.664z"/><defs><linearGradient id="a" x1="4.03" x2="23.727" y1="33.118" y2="13.421" gradientUnits="userSpaceOnUse"><stop stop-color="#fff"/><stop offset="1" stop-color="#fff" stop-opacity=".8"/></linearGradient></defs></svg>