<svg width="28px" height="28px" viewBox="0 0 42 41" fill="none" xmlns="http://www.w3.org/2000/svg">
<path opacity="0.6" d="M13.7273 1.60265C13.7273 1.60265 13.1212 0.996574 12.2121 0.996582C11.0359 0.996593 10.1668 1.77765 9.36436 3.03939C4.45734 10.8201 0.969158 27.6332 1.00002 27.6632L21 8.57234L13.7273 1.60265Z" fill="#fff"/>
<path opacity="0.7" d="M28.2727 1.60265C28.2727 1.60265 28.8788 0.996582 29.7879 0.996582C30.9641 0.996582 31.8332 1.77765 32.6356 3.03939C37.5427 10.8201 41.0308 27.6332 41 27.6632L21 8.57234L28.2727 1.60265Z" fill="#fff"/>
<path d="M21 8.57227L1.00001 27.6632C0.848513 28.5723 11.1311 36.8813 17.4345 40.0941C18.4402 40.6028 19.8768 40.9871 21 40.9963C22.1309 41.0057 23.5684 40.6364 24.5655 40.0941C30.8689 36.8813 41.1515 28.5723 41 27.6632L21 8.57227Z" fill="url(#paint0_linear_96_8931)"/>
<defs>
<linearGradient id="paint0_linear_96_8931" x1="4.03031" y1="33.1177" x2="23.7273" y2="13.4208" gradientUnits="userSpaceOnUse">
<stop stop-color="#fff"/>
<stop offset="1" stop-color="#fff" stop-opacity="0.8"/>
</linearGradient>
</defs>
</svg>
