<svg xmlns="http://www.w3.org/2000/svg" version="1.0" preserveAspectRatio="xMidYMid meet" viewBox="69.57 79 168.16 162" width="26px" height="26px"><g transform="translate(0.000000,320.000000) scale(0.100000,-0.100000)" fill="#fff" stroke="none" ><path d="M898 2358 c16 -29 78 -137 136 -240 58 -102 106 -189 106 -192 0 -8 -50 -68 -270 -327 -91 -107 -169 -200 -174 -206 -6 -10 77 -13 401 -13 l409 0 46 128 46 127 -173 5 -173 5 104 119 c57 65 104 123 104 129 0 5 -29 59 -65 119 -36 61 -65 114 -65 119 0 5 134 9 310 9 171 0 310 -2 310 -4 0 -2 -106 -298 -236 -657 -130 -360 -239 -662 -242 -671 -4 -17 8 -18 161 -18 148 0 166 2 172 17 16 43 568 1570 572 1586 5 16 -36 17 -752 17 l-756 0 29 -52z"></path></g></svg>