<svg xmlns="http://www.w3.org/2000/svg" width="26" height="26" version="1.0" viewBox="69.57 79 168.16 162"><path fill="#fff" d="M89.8 84.2c1.6 2.9 7.8 13.7 13.6 24 5.8 10.2 10.6 18.9 10.6 19.2 0 .8-5 6.8-27 32.7-9.1 10.7-16.9 20-17.4 20.6-.6 1 7.7 1.3 40.1 1.3h40.9l4.6-12.8 4.6-12.7-17.3-.5-17.3-.5 10.4-11.9c5.7-6.5 10.4-12.3 10.4-12.9 0-.5-2.9-5.9-6.5-11.9-3.6-6.1-6.5-11.4-6.5-11.9s13.4-.9 31-.9c17.1 0 31 .2 31 .4s-10.6 29.8-23.6 65.7c-13 36-23.9 66.2-24.2 67.1-.4 1.7.8 1.8 16.1 1.8 14.8 0 16.6-.2 17.2-1.7 1.6-4.3 56.8-157 57.2-158.6.5-1.6-3.6-1.7-75.2-1.7H86.9z"/></svg>