<?xml version="1.0" encoding="UTF-8"?>
<!DOCTYPE svg PUBLIC "-//W3C//DTD SVG 1.1//EN" "http://www.w3.org/Graphics/SVG/1.1/DTD/svg11.dtd">
<svg xmlns="http://www.w3.org/2000/svg" version="1.1" width="570px" height="619px" style="shape-rendering:geometricPrecision; text-rendering:geometricPrecision; image-rendering:optimizeQuality; fill-rule:evenodd; clip-rule:evenodd" xmlns:xlink="http://www.w3.org/1999/xlink">
<g><path style="opacity:0.974" fill="#fefefe" d="M 254.5,56.5 C 352.483,48.6416 431.317,83.3083 491,160.5C 536.485,227.178 549.152,299.845 529,378.5C 498.417,473.082 434.917,532.582 338.5,557C 242.769,573.965 161.603,547.465 95,477.5C 35.4163,406.454 17.7497,325.787 42,235.5C 68.6775,154.492 121.844,98.9918 201.5,69C 211.118,66.2087 220.785,63.542 230.5,61C 238.694,59.8038 246.694,58.3038 254.5,56.5 Z"/></g>
<g><path style="opacity:1" fill="#f0ce9f" d="M 358.5,143.5 C 311.5,144.833 264.5,144.833 217.5,143.5C 264.469,125.005 311.469,125.005 358.5,143.5 Z"/></g>
<g><path style="opacity:1" fill="#f8ecda" d="M 217.5,143.5 C 264.5,144.833 311.5,144.833 358.5,143.5C 359.376,143.369 360.043,143.702 360.5,144.5C 312.5,145.833 264.5,145.833 216.5,144.5C 216.624,143.893 216.957,143.56 217.5,143.5 Z"/></g>
<g><path style="opacity:1" fill="#f0ce9e" d="M 377.5,186.5 C 324.51,151.491 269.51,148.324 212.5,177C 207.985,180.03 203.651,183.197 199.5,186.5C 185.163,186.667 170.829,186.5 156.5,186C 170.711,171.567 186.711,159.567 204.5,150C 260.5,149.333 316.5,149.333 372.5,150C 390.197,159.692 406.197,171.692 420.5,186C 406.171,186.5 391.837,186.667 377.5,186.5 Z"/></g>
<g><path style="opacity:1" fill="#debe92" d="M 377.5,186.5 C 318.167,186.5 258.833,186.5 199.5,186.5C 203.651,183.197 207.985,180.03 212.5,177C 269.51,148.324 324.51,151.491 377.5,186.5 Z"/></g>
<g><path style="opacity:1" fill="#efce9e" d="M 191.5,191.5 C 179.034,201.962 168.368,213.962 159.5,227.5C 148.813,227.832 138.146,227.499 127.5,226.5C 133.746,213.758 141.746,202.258 151.5,192C 164.829,191.5 178.163,191.333 191.5,191.5 Z"/></g>
<g><path style="opacity:1" fill="#ddbd91" d="M 191.5,191.5 C 220.5,191.5 249.5,191.5 278.5,191.5C 249.248,194.692 224.248,206.692 203.5,227.5C 188.833,227.5 174.167,227.5 159.5,227.5C 168.368,213.962 179.034,201.962 191.5,191.5 Z"/></g>
<g><path style="opacity:1" fill="#ddbd91" d="M 298.5,191.5 C 327.167,191.5 355.833,191.5 384.5,191.5C 396.93,201.93 407.597,213.93 416.5,227.5C 401.833,227.5 387.167,227.5 372.5,227.5C 359.191,214.165 343.525,204.331 325.5,198C 316.331,195.957 307.331,193.79 298.5,191.5 Z"/></g>
<g><path style="opacity:1" fill="#efce9e" d="M 384.5,191.5 C 398.171,191.333 411.837,191.5 425.5,192C 435.641,202.468 443.641,214.301 449.5,227.5C 438.5,227.5 427.5,227.5 416.5,227.5C 407.597,213.93 396.93,201.93 384.5,191.5 Z"/></g>
<g><path style="opacity:1" fill="#cbae86" d="M 278.5,191.5 C 285.167,191.5 291.833,191.5 298.5,191.5C 307.331,193.79 316.331,195.957 325.5,198C 343.525,204.331 359.191,214.165 372.5,227.5C 349.661,227.169 326.994,227.503 304.5,228.5C 302.446,224.942 299.78,221.775 296.5,219C 293.167,217 289.833,217 286.5,219C 284.28,221.713 282.28,224.546 280.5,227.5C 254.833,227.5 229.167,227.5 203.5,227.5C 224.248,206.692 249.248,194.692 278.5,191.5 Z"/></g>
<g><path style="opacity:1" fill="#272726" d="M 304.5,228.5 C 304.989,229.995 305.655,231.329 306.5,232.5C 308.155,241.144 311.322,249.144 316,256.5C 320.418,261.051 324.585,265.718 328.5,270.5C 329.5,272.167 330.833,273.5 332.5,274.5C 336.046,280.225 340.213,285.559 345,290.5C 348.526,298.505 353.36,305.505 359.5,311.5C 359.5,312.167 359.833,312.5 360.5,312.5C 360.833,313.5 361.5,314.167 362.5,314.5C 365.82,317.648 369.32,320.648 373,323.5C 375.574,321.356 377.407,318.689 378.5,315.5C 379.401,314.71 380.068,313.71 380.5,312.5C 384.296,305.774 388.962,299.607 394.5,294C 399.008,293.447 403.008,294.614 406.5,297.5C 412.19,302.518 418.19,307.185 424.5,311.5C 424.5,312.167 424.833,312.5 425.5,312.5C 426.306,313.728 427.306,314.728 428.5,315.5C 430.807,316.977 432.64,318.977 434,321.5C 436.665,331.004 441.499,339.171 448.5,346C 454.147,348.932 460.147,350.099 466.5,349.5C 472.681,350.465 477.847,353.465 482,358.5C 488.465,373.754 495.965,388.421 504.5,402.5C 356.167,403.833 207.833,403.833 59.5,402.5C 78.0804,391.259 96.4137,379.592 114.5,367.5C 124.117,362.216 131.784,354.883 137.5,345.5C 150.648,338.024 161.981,328.357 171.5,316.5C 172.167,316.5 172.5,316.167 172.5,315.5C 173.167,314.5 173.833,313.5 174.5,312.5C 175.167,312.5 175.5,312.167 175.5,311.5C 184.563,299.722 192.896,287.389 200.5,274.5C 201.752,272.999 202.752,271.332 203.5,269.5C 207.114,266.687 210.448,267.021 213.5,270.5C 214.5,271.167 215.5,271.833 216.5,272.5C 216.973,273.906 217.973,274.573 219.5,274.5C 224.825,279.821 230.491,284.821 236.5,289.5C 240.585,284.996 243.918,279.996 246.5,274.5C 247.167,274.5 247.5,274.167 247.5,273.5C 248.401,272.71 249.068,271.71 249.5,270.5C 250.338,270.158 250.672,269.492 250.5,268.5C 259.975,256.896 268.975,244.896 277.5,232.5C 278.737,231.035 279.737,229.368 280.5,227.5C 282.28,224.546 284.28,221.713 286.5,219C 289.833,217 293.167,217 296.5,219C 299.78,221.775 302.446,224.942 304.5,228.5 Z"/></g>
<g><path style="opacity:1" fill="#f0ce9e" d="M 155.5,232.5 C 149.316,244.066 144.316,256.066 140.5,268.5C 131.167,268.5 121.833,268.5 112.5,268.5C 112.5,267.5 112.5,266.5 112.5,265.5C 115.169,254.159 118.836,243.159 123.5,232.5C 134.167,232.5 144.833,232.5 155.5,232.5 Z"/></g>
<g><path style="opacity:1" fill="#debe92" d="M 155.5,232.5 C 169.833,232.5 184.167,232.5 198.5,232.5C 189.133,243.231 181.799,255.231 176.5,268.5C 164.5,268.5 152.5,268.5 140.5,268.5C 144.316,256.066 149.316,244.066 155.5,232.5 Z"/></g>
<g><path style="opacity:1" fill="#cbae87" d="M 198.5,232.5 C 220.167,232.5 241.833,232.5 263.5,232.5C 244.778,239.204 229.778,250.871 218.5,267.5C 229.146,268.499 239.813,268.832 250.5,268.5C 250.672,269.492 250.338,270.158 249.5,270.5C 237.5,269.167 225.5,269.167 213.5,270.5C 210.448,267.021 207.114,266.687 203.5,269.5C 194.682,268.507 185.682,268.173 176.5,268.5C 181.799,255.231 189.133,243.231 198.5,232.5 Z"/></g>
<g><path style="opacity:1" fill="#b29875" d="M 263.5,232.5 C 268.167,232.5 272.833,232.5 277.5,232.5C 268.975,244.896 259.975,256.896 250.5,268.5C 239.813,268.832 229.146,268.499 218.5,267.5C 229.778,250.871 244.778,239.204 263.5,232.5 Z"/></g>
<g><path style="opacity:1" fill="#b19875" d="M 306.5,232.5 C 308.5,232.5 310.5,232.5 312.5,232.5C 331.781,238.757 347.114,250.424 358.5,267.5C 348.341,268.167 338.341,268.833 328.5,269.5C 328.5,269.833 328.5,270.167 328.5,270.5C 324.585,265.718 320.418,261.051 316,256.5C 311.322,249.144 308.155,241.144 306.5,232.5 Z"/></g>
<g><path style="opacity:1" fill="#ccaf87" d="M 312.5,232.5 C 334.167,232.5 355.833,232.5 377.5,232.5C 386.923,243.249 394.256,255.249 399.5,268.5C 399.5,268.833 399.5,269.167 399.5,269.5C 375.833,269.5 352.167,269.5 328.5,269.5C 338.341,268.833 348.341,268.167 358.5,267.5C 347.114,250.424 331.781,238.757 312.5,232.5 Z"/></g>
<g><path style="opacity:1" fill="#debe92" d="M 377.5,232.5 C 391.833,232.5 406.167,232.5 420.5,232.5C 427.066,243.87 432.066,255.87 435.5,268.5C 423.5,268.5 411.5,268.5 399.5,268.5C 394.256,255.249 386.923,243.249 377.5,232.5 Z"/></g>
<g><path style="opacity:1" fill="#efce9f" d="M 420.5,232.5 C 431.52,232.168 442.52,232.501 453.5,233.5C 458.911,245.066 462.911,257.066 465.5,269.5C 443.5,269.5 421.5,269.5 399.5,269.5C 399.5,269.167 399.5,268.833 399.5,268.5C 411.5,268.5 423.5,268.5 435.5,268.5C 432.066,255.87 427.066,243.87 420.5,232.5 Z"/></g>
<g><path style="opacity:1" fill="#fbfbfb" d="M 290.5,236.5 C 292.981,236.323 294.814,237.323 296,239.5C 297.116,250.772 299.45,261.772 303,272.5C 308.919,282.002 314.586,291.669 320,301.5C 321.825,306.986 319.992,309.486 314.5,309C 312.65,306.982 310.65,305.149 308.5,303.5C 308.167,304.167 307.833,304.833 307.5,305.5C 309.04,309.584 310.873,313.584 313,317.5C 318.104,322.209 320.938,328.043 321.5,335C 320.756,343.51 316.423,345.843 308.5,342C 301.833,336 295.167,330 288.5,324C 283.062,322.017 277.396,320.683 271.5,320C 262.2,315.37 254.033,309.204 247,301.5C 246.294,299.029 246.627,296.695 248,294.5C 257.495,281.512 266.495,268.179 275,254.5C 279.938,248.282 285.105,242.282 290.5,236.5 Z"/></g>
<g><path style="opacity:1" fill="#e6cead" d="M 112.5,265.5 C 112.5,266.5 112.5,267.5 112.5,268.5C 121.833,268.5 131.167,268.5 140.5,268.5C 152.5,268.5 164.5,268.5 176.5,268.5C 185.682,268.173 194.682,268.507 203.5,269.5C 172.833,269.5 142.167,269.5 111.5,269.5C 111.232,267.901 111.566,266.568 112.5,265.5 Z"/></g>
<g><path style="opacity:1" fill="#fcfcfc" d="M 213.5,270.5 C 225.5,269.167 237.5,269.167 249.5,270.5C 249.068,271.71 248.401,272.71 247.5,273.5C 237.115,273.786 226.782,273.452 216.5,272.5C 215.5,271.833 214.5,271.167 213.5,270.5 Z"/></g>
<g><path style="opacity:1" fill="#ddd4c8" d="M 216.5,272.5 C 226.782,273.452 237.115,273.786 247.5,273.5C 247.5,274.167 247.167,274.5 246.5,274.5C 237.5,274.5 228.5,274.5 219.5,274.5C 217.973,274.573 216.973,273.906 216.5,272.5 Z"/></g>
<g><path style="opacity:1" fill="#efce9e" d="M 138.5,274.5 C 135.994,286.366 134.66,298.366 134.5,310.5C 125.167,310.5 115.833,310.5 106.5,310.5C 106.787,298.43 107.787,286.43 109.5,274.5C 119.167,274.5 128.833,274.5 138.5,274.5 Z"/></g>
<g><path style="opacity:1" fill="#debe92" d="M 138.5,274.5 C 150.5,274.5 162.5,274.5 174.5,274.5C 170.903,286.224 168.903,298.224 168.5,310.5C 157.167,310.5 145.833,310.5 134.5,310.5C 134.66,298.366 135.994,286.366 138.5,274.5 Z"/></g>
<g><path style="opacity:1" fill="#caad86" d="M 174.5,274.5 C 183.167,274.5 191.833,274.5 200.5,274.5C 192.896,287.389 184.563,299.722 175.5,311.5C 173.393,310.532 171.059,310.198 168.5,310.5C 168.903,298.224 170.903,286.224 174.5,274.5 Z"/></g>
<g><path style="opacity:1" fill="#ae9573" d="M 219.5,274.5 C 228.5,274.5 237.5,274.5 246.5,274.5C 243.918,279.996 240.585,284.996 236.5,289.5C 230.491,284.821 224.825,279.821 219.5,274.5 Z"/></g>
<g><path style="opacity:1" fill="#b29875" d="M 332.5,274.5 C 342.5,274.5 352.5,274.5 362.5,274.5C 367.991,285.797 370.991,297.797 371.5,310.5C 367.298,310.183 363.298,310.517 359.5,311.5C 353.36,305.505 348.526,298.505 345,290.5C 340.213,285.559 336.046,280.225 332.5,274.5 Z"/></g>
<g><path style="opacity:1" fill="#cbaf87" d="M 362.5,274.5 C 375.5,274.5 388.5,274.5 401.5,274.5C 403.996,281.952 405.662,289.618 406.5,297.5C 403.008,294.614 399.008,293.447 394.5,294C 388.962,299.607 384.296,305.774 380.5,312.5C 373.833,311.167 367.167,311.167 360.5,312.5C 359.833,312.5 359.5,312.167 359.5,311.5C 363.298,310.517 367.298,310.183 371.5,310.5C 370.991,297.797 367.991,285.797 362.5,274.5 Z"/></g>
<g><path style="opacity:1" fill="#ddbd91" d="M 401.5,274.5 C 413.5,274.5 425.5,274.5 437.5,274.5C 440.103,286.333 441.437,298.333 441.5,310.5C 435.642,310.178 429.975,310.511 424.5,311.5C 418.19,307.185 412.19,302.518 406.5,297.5C 405.662,289.618 403.996,281.952 401.5,274.5 Z"/></g>
<g><path style="opacity:1" fill="#efce9e" d="M 437.5,274.5 C 447.5,274.5 457.5,274.5 467.5,274.5C 469.817,286.364 470.817,298.364 470.5,310.5C 460.833,310.5 451.167,310.5 441.5,310.5C 441.437,298.333 440.103,286.333 437.5,274.5 Z"/></g>
<g><path style="opacity:1" fill="#fcfcfc" d="M 247.5,371.5 C 244.663,373.402 241.329,374.069 237.5,373.5C 232.821,373.334 228.155,373.501 223.5,374C 221.942,374.21 220.609,374.71 219.5,375.5C 206.861,377.255 195.194,374.755 184.5,368C 182.5,367.667 180.5,367.333 178.5,367C 166.821,366.64 155.155,366.64 143.5,367C 154.632,358.202 164.798,348.369 174,337.5C 186.757,320.306 199.257,302.972 211.5,285.5C 217.125,290.624 222.625,295.958 228,301.5C 229.04,305.533 228.374,309.199 226,312.5C 223.487,317.932 224.32,322.765 228.5,327C 233.336,329.507 237.17,333.007 240,337.5C 240.442,344.276 240.108,350.943 239,357.5C 241.689,362.333 244.522,367 247.5,371.5 Z"/></g>
<g><path style="opacity:1" fill="#eedfc8" d="M 106.5,310.5 C 115.833,310.5 125.167,310.5 134.5,310.5C 145.833,310.5 157.167,310.5 168.5,310.5C 171.059,310.198 173.393,310.532 175.5,311.5C 175.5,312.167 175.167,312.5 174.5,312.5C 151.833,311.833 129.167,311.167 106.5,310.5 Z"/></g>
<g><path style="opacity:1" fill="#f7f7f7" d="M 393.5,309.5 C 396.452,310.359 398.285,312.359 399,315.5C 395.927,329.86 401.093,339.693 414.5,345C 425.483,352.152 433.817,361.652 439.5,373.5C 439.167,374.167 438.833,374.833 438.5,375.5C 424.516,370.674 411.183,364.507 398.5,357C 390.839,350.505 385.006,342.672 381,333.5C 380.333,331.833 380.333,330.167 381,328.5C 385.177,322.138 389.344,315.805 393.5,309.5 Z"/></g>
<g><path style="opacity:1" fill="#f3e2cb" d="M 441.5,310.5 C 451.167,310.5 460.833,310.5 470.5,310.5C 455.5,311.167 440.5,311.833 425.5,312.5C 424.833,312.5 424.5,312.167 424.5,311.5C 429.975,310.511 435.642,310.178 441.5,310.5 Z"/></g>
<g><path style="opacity:1" fill="#f9f9f9" d="M 380.5,312.5 C 380.068,313.71 379.401,314.71 378.5,315.5C 373.105,315.733 367.772,315.4 362.5,314.5C 361.5,314.167 360.833,313.5 360.5,312.5C 367.167,311.167 373.833,311.167 380.5,312.5 Z"/></g>
<g><path style="opacity:1" fill="#eecd9f" d="M 172.5,315.5 C 172.5,316.167 172.167,316.5 171.5,316.5C 159.149,316.168 146.815,316.501 134.5,317.5C 135.791,326.785 136.791,336.119 137.5,345.5C 131.784,354.883 124.117,362.216 114.5,367.5C 109.671,350.522 107.004,333.189 106.5,315.5C 128.5,315.5 150.5,315.5 172.5,315.5 Z"/></g>
<g><path style="opacity:1" fill="#dbbc90" d="M 171.5,316.5 C 161.981,328.357 150.648,338.024 137.5,345.5C 136.791,336.119 135.791,326.785 134.5,317.5C 146.815,316.501 159.149,316.168 171.5,316.5 Z"/></g>
<g><path style="opacity:1" fill="#bea685" d="M 362.5,314.5 C 367.772,315.4 373.105,315.733 378.5,315.5C 377.407,318.689 375.574,321.356 373,323.5C 369.32,320.648 365.82,317.648 362.5,314.5 Z"/></g>
<g><path style="opacity:1" fill="#edcc9d" d="M 428.5,315.5 C 442.5,315.5 456.5,315.5 470.5,315.5C 470.202,327.096 468.869,338.429 466.5,349.5C 460.147,350.099 454.147,348.932 448.5,346C 441.499,339.171 436.665,331.004 434,321.5C 432.64,318.977 430.807,316.977 428.5,315.5 Z"/></g>
<g><path style="opacity:1" fill="#b0b0b0" d="M 247.5,371.5 C 248.267,372.172 248.934,373.005 249.5,374C 245.514,374.499 241.514,374.666 237.5,374.5C 237.5,374.167 237.5,373.833 237.5,373.5C 241.329,374.069 244.663,373.402 247.5,371.5 Z"/></g>
<g><path style="opacity:1" fill="#515151" d="M 237.5,373.5 C 237.5,373.833 237.5,374.167 237.5,374.5C 233.486,374.334 229.486,374.501 225.5,375C 226.696,375.654 226.696,376.154 225.5,376.5C 223.591,375.652 221.591,375.318 219.5,375.5C 220.609,374.71 221.942,374.21 223.5,374C 228.155,373.501 232.821,373.334 237.5,373.5 Z"/></g>
<g><path style="opacity:1" fill="#606060" d="M 59.5,402.5 C 207.833,403.833 356.167,403.833 504.5,402.5C 505.338,402.842 505.672,403.508 505.5,404.5C 355.999,404.833 206.666,404.5 57.5,403.5C 58.1667,403.167 58.8333,402.833 59.5,402.5 Z"/></g>
<g><path style="opacity:1" fill="#dddddd" d="M 57.5,403.5 C 206.666,404.5 355.999,404.833 505.5,404.5C 355.999,405.833 206.333,405.833 56.5,404.5C 56.6236,403.893 56.9569,403.56 57.5,403.5 Z"/></g>
<g><path style="opacity:1" fill="#87735b" d="M 161.5,413.5 C 170.582,413.086 179.582,413.586 188.5,415C 196.42,419.597 198.42,426.097 194.5,434.5C 198.498,444.368 195.498,450.868 185.5,454C 177.507,454.5 169.507,454.666 161.5,454.5C 161.5,440.833 161.5,427.167 161.5,413.5 Z"/></g>
<g><path style="opacity:1" fill="#a19383" d="M 267.5,414.5 C 256.167,414.5 244.833,414.5 233.5,414.5C 233.5,427.833 233.5,441.167 233.5,454.5C 232.504,441.01 232.171,427.344 232.5,413.5C 244.345,413.172 256.012,413.505 267.5,414.5 Z"/></g>
<g><path style="opacity:1" fill="#867259" d="M 267.5,414.5 C 267.5,418.167 267.5,421.833 267.5,425.5C 259.5,425.5 251.5,425.5 243.5,425.5C 243.5,426.833 243.5,428.167 243.5,429.5C 248.64,430.488 253.974,430.821 259.5,430.5C 259.5,433.167 259.5,435.833 259.5,438.5C 254.167,438.5 248.833,438.5 243.5,438.5C 243.5,440.167 243.5,441.833 243.5,443.5C 251.5,443.5 259.5,443.5 267.5,443.5C 267.5,447.167 267.5,450.833 267.5,454.5C 256.167,454.5 244.833,454.5 233.5,454.5C 233.5,441.167 233.5,427.833 233.5,414.5C 244.833,414.5 256.167,414.5 267.5,414.5 Z"/></g>
<g><path style="opacity:1" fill="#87735b" d="M 315.5,444.5 C 314.521,447.625 314.187,450.958 314.5,454.5C 311.167,454.5 307.833,454.5 304.5,454.5C 304.5,440.833 304.5,427.167 304.5,413.5C 312.903,413.13 321.236,413.63 329.5,415C 336.752,418.673 339.918,424.507 339,432.5C 337.453,436.436 335.287,439.936 332.5,443C 334.367,446.565 336.367,450.065 338.5,453.5C 334.167,454.833 329.833,454.833 325.5,453.5C 323.707,450.749 322.041,447.916 320.5,445C 318.866,444.506 317.199,444.34 315.5,444.5 Z"/></g>
<g><path style="opacity:1" fill="#87745c" d="M 399.5,430.5 C 404.833,430.5 410.167,430.5 415.5,430.5C 415.5,438.5 415.5,446.5 415.5,454.5C 406.817,453.613 398.15,453.446 389.5,454C 378.42,448.571 373.92,439.738 376,427.5C 383.708,413.532 394.541,410.366 408.5,418C 409.451,418.718 409.617,419.551 409,420.5C 407.513,422.985 405.679,425.152 403.5,427C 399.688,425.694 395.688,425.361 391.5,426C 385.257,430.907 384.924,436.24 390.5,442C 395.482,444.392 399.816,443.559 403.5,439.5C 402.311,438.571 400.978,438.238 399.5,438.5C 399.5,435.833 399.5,433.167 399.5,430.5 Z"/></g>
<g><path style="opacity:1" fill="#f0eeec" d="M 172.5,424.5 C 176.514,424.334 180.514,424.501 184.5,425C 185.833,426.333 185.833,427.667 184.5,429C 180.514,429.499 176.514,429.666 172.5,429.5C 172.5,427.833 172.5,426.167 172.5,424.5 Z"/></g>
<g><path style="opacity:1" fill="#fbfbfa" d="M 315.5,425.5 C 319.182,425.335 322.848,425.501 326.5,426C 328.02,428.552 327.687,430.718 325.5,432.5C 322.167,432.5 318.833,432.5 315.5,432.5C 315.5,430.167 315.5,427.833 315.5,425.5 Z"/></g>
<g><path style="opacity:1" fill="#aca091" d="M 243.5,429.5 C 249.167,429.5 254.833,429.5 260.5,429.5C 260.81,432.713 260.477,435.713 259.5,438.5C 259.5,435.833 259.5,433.167 259.5,430.5C 253.974,430.821 248.64,430.488 243.5,429.5 Z"/></g>
<g><path style="opacity:1" fill="#aa9c8d" d="M 399.5,430.5 C 404.975,429.511 410.642,429.178 416.5,429.5C 416.826,438.017 416.493,446.35 415.5,454.5C 415.5,446.5 415.5,438.5 415.5,430.5C 410.167,430.5 404.833,430.5 399.5,430.5 Z"/></g>
<g><path style="opacity:1" fill="#bcb1a4" d="M 315.5,425.5 C 315.5,427.833 315.5,430.167 315.5,432.5C 318.833,432.5 322.167,432.5 325.5,432.5C 322.038,433.482 318.371,433.815 314.5,433.5C 314.194,430.615 314.527,427.948 315.5,425.5 Z"/></g>
<g><path style="opacity:1" fill="#bfb7ad" d="M 183.5,439.5 C 179.833,439.5 176.167,439.5 172.5,439.5C 172.5,440.833 172.5,442.167 172.5,443.5C 171.549,442.081 171.216,440.415 171.5,438.5C 175.702,438.183 179.702,438.517 183.5,439.5 Z"/></g>
<g><path style="opacity:1" fill="#f9f8f7" d="M 183.5,439.5 C 185.176,440.183 185.843,441.517 185.5,443.5C 181.167,443.5 176.833,443.5 172.5,443.5C 172.5,442.167 172.5,440.833 172.5,439.5C 176.167,439.5 179.833,439.5 183.5,439.5 Z"/></g>
<g><path style="opacity:1" fill="#d3cbc3" d="M 315.5,444.5 C 315.5,448.167 315.5,451.833 315.5,455.5C 311.629,455.815 307.962,455.482 304.5,454.5C 307.833,454.5 311.167,454.5 314.5,454.5C 314.187,450.958 314.521,447.625 315.5,444.5 Z"/></g>
</svg>
